<svg xmlns="http://www.w3.org/2000/svg" width="1720.239" height="364.512" viewBox="0 0 1720.239 364.512">
  <g id="a1c3e3c4-6efc-416c-93d0-51020fa46b51" data-name="Layer 2">
    <g id="f05a6593-ce80-4ad6-a132-4a0a165a6f52" data-name="Layer 1">
      <g>
        <g>
          <g>
            <path d="M548.632,132C540,106.259,532,91.1,500.341,91.1c-15.67,0-26.224.285-35.179.858-.959,10.581-1.6,38.895-1.6,90.088,0,85.8,1.6,93.235,4.157,94.665,4.157,2.288,14.711,2,22.706,3.718,2.559.572,1.919,3.718.32,3.718-8.955-.858-23.346-1.144-40.616-1.144-16.949,0-32.3.286-41.255,1.144-1.6,0-2.239-3.146.32-3.718,7.995-1.717,19.508-1.43,23.346-3.718,2.878-1.43,4.477-8.866,4.477-94.665,0-51.193-.64-79.221-1.6-90.088-8.955-.287-17.269-.858-29.423-.858-34.218,0-47.651,16.015-58.205,39.181-.959,2-6.395,1.716-6.395.286,2.238-13.442,12.471-42.327,12.792-52.051,0-2,4.157-2.288,5.117-1.43,8,6.292,18.228,7.722,92.1,7.722,77.714,0,90.186-1.716,96.263-7.722.959-1.144,5.436-.572,4.8,1.43-1.6,9.724,2.878,40.325,2.558,53.767C554.709,133.715,549.271,134,548.632,132Z" style="fill: #82c5bf"/>
            <path d="M583.47,283.005c-9.082,0-13.333.172-18.938.518-.966.173-1.159-1.556.193-1.9,4.446-.864,6.957-.691,9.277-1.9,2.126-1.037,3.478-11.234,2.511-47.18-.385-11.579-8.7-15.727-19.71-15.727a27.876,27.876,0,0,0-20.292,8.641,5.211,5.211,0,0,0-1.933,4.493v16.764c0,29.9.773,32.145,2.513,33.009,2.318,1.21,4.831,1.037,9.275,1.9,1.354.345,1.16,2.074.193,1.9-5.6-.346-9.855-.518-18.745-.518-9.663,0-15.266.172-20.292.518-.772.173-1.159-1.556.194-1.9,4.445-.864,8.31-.691,10.629-1.9,1.545-.692,2.512-3.284,2.512-60.66,0-48.045-.58-57.031-2.319-58.068s-5.025-1.728-9.469-2.247c-1.547-.173-1.16-1.383-.387-1.555,9.277-1.383,19.906-4.494,26.283-8.468A1.3,1.3,0,0,1,536.9,150.1c-1.16,3.629-1.352,10.369-1.352,12.271L534.385,222c0,.691,1.352.864,1.545.691,9.277-8.987,18.553-14.344,29.569-14.344,16.426,0,24.736,9.85,24.736,24.195,0,40.613.966,46.488,2.512,47.18,2.319,1.21,6.184,1.037,10.629,1.9,1.352.345,1.16,2.074.193,1.9C598.545,283.177,592.94,283.005,583.47,283.005Z" style="fill: #82c5bf"/>
            <path d="M660.771,224.418c-5.991,0-7.924-6.74-13.141-6.74-5.8,0-7.731,2.247-14.108,8.987a5.21,5.21,0,0,0-1.932,4.493l.386,15.554c.58,30.071.774,32.145,2.32,33.009,2.318,1.21,10.242,1.037,14.686,1.9,1.354.345.967,2.074.194,1.9-5.605-.346-15.267-.518-24.157-.518-9.663,0-15.074.172-20.1.518-.966.173-1.353-1.556.193-1.9,4.445-.864,8.31-.691,10.629-1.9,1.546-.692,2.319-2.938,2.319-33.009,0-20.738-.58-24.195-2.319-25.75s-4.059-2.593-8.7-3.284c-1.353-.345-.966-1.382-.194-1.555,9.277-1.556,17.586-6.913,23.771-10.715a1.4,1.4,0,0,1,2.126,1.21c-.774,2.246-1.739,10.715-1.739,16.936,0,.518,1.545.864,1.545.691,5.218-8.468,15.267-16.763,23-16.763,8.116,0,13.333,2.938,13.333,8.814C668.887,220.962,665.8,224.418,660.771,224.418Z" style="fill: #82c5bf"/>
            <path d="M696.137,283.005c-9.664,0-15.075.172-20.1.518-.966.173-1.353-1.556.193-1.9,4.445-.864,8.31-.691,10.629-1.9,1.546-.692,2.319-2.938,2.319-33.009,0-20.738-.386-24.022-2.319-25.75-1.739-1.556-4.058-2.593-8.5-3.284-1.546-.345-1.16-1.382-.387-1.555,9.277-1.556,17.586-6.913,23.771-10.715a1.4,1.4,0,0,1,2.125,1.21c-.772,2.246-.386,8.468-.386,14.689l-.386,25.405c-.387,30.071.772,32.145,2.511,33.009,2.126,1.21,6.185,1.037,10.436,1.9,1.547.345,1.16,2.074.193,1.9C710.63,283.177,705.026,283.005,696.137,283.005Zm-1.354-104.211c-5.024,0-9.082-2.938-9.082-7.432,0-5.185,5.024-8.986,10.436-8.986,5.024,0,8.5,3.283,8.5,7.949C704.639,174.818,700.581,178.794,694.783,178.794Z" style="fill: #82c5bf"/>
            <path d="M790.056,168.6c-10.048,0-11.981-9.159-23-9.159-6.763,0-10.629,3.456-12.755,12.27-1.931,8.122-2.511,20.738-2.511,39.23,13.527,0,20.677-.346,27.828-.691,1.933,0,2.126,8.641-.193,8.468-7.344-.346-14.108-.519-27.635-.519v20.221c0,29.725.772,40.44,2.511,41.3,2.126,1.21,11.016,1.037,15.461,1.9,1.546.345,1.16,2.074.194,1.9-5.6-.346-16.234-.518-25.123-.518-9.663,0-15.074.172-20.1.518-.966.173-1.352-1.556.193-1.9,4.446-.864,8.31-.691,10.629-1.9,1.546-.692,2.32-3.975,2.32-61.179-5.992-.173-11.016-.346-15.654,0-1.16,0-.966-3.456.386-3.629a40.727,40.727,0,0,0,13.142-3.975,4.337,4.337,0,0,0,2.126-3.975c0-36.983,18.745-55.13,42.322-55.13,13.527,0,17.973,4.148,17.973,9.678C798.174,164.968,794.308,168.6,790.056,168.6Z" style="fill: #82c5bf"/>
            <path d="M821.556,285.078c-17.2,0-20.485-9.85-20.485-21.257,0-14.171.387-40.612.387-46.143-5.991-.173-11.209-.345-15.847,0-.966,0-.966-3.283.387-3.629a42.321,42.321,0,0,0,28.021-20.566c.774-1.209,3.479-.173,3.285.519-.193,2.073-.965,8.986-1.159,15.381,0,.518.387,1.037,1.74,1.037,13.527,0,18.165-.346,25.315-.692,1.933-.172,2.126,8.641-.386,8.468-7.15-.345-13.914-.691-27.635-.691,0,8.123-.386,30.59-.386,44.07,0,10.715,2.9,17.454,13.14,17.454,5.992,0,11.209-1.382,15.46-4.32.774-.518,1.546,1.037,1.161,1.382C839.915,280.931,829.479,285.078,821.556,285.078Z" style="fill: #82c5bf"/>
            <path d="M939.246,211.8c-4.831.864-6.57.519-9.276,1.9-3.866,2.074-11.789,18.319-26.283,53.229-19.325,47.008-27.441,59.278-39.23,59.278-7.343,0-11.208-2.766-11.208-7.259,0-3.975,3.285-7.258,8.309-7.258,5.218,0,6.571,2.765,10.049,2.765,4.639,0,11.6-11.406,19.325-30.935C875.279,250,858.66,215.431,854.6,213.7c-2.9-1.037-5.8-1.037-10.629-1.9-1.545-.345-.965-1.9,0-1.9,5.025.346,8.89.691,18.552.691s20.872-.345,25.9-.691a.953.953,0,0,1,0,1.9c-4.059.864-13.335.519-14.3,2.074-1.353,2.765,8.7,23.676,24.156,53.921,13.142-29.38,19.519-47.7,19.519-51.847,0-2.074-2.9-2.938-11.595-4.148-1.353-.172-.773-1.9.193-1.9,4.831.346,9.082.691,18.552.691a116.95,116.95,0,0,0,14.494-.691C940.405,209.9,940.985,211.457,939.246,211.8Z" style="fill: #82c5bf"/>
            <path d="M1102.909,203.624c-12.417,14.411-26.419,29.531-35.137,39.69,25.1,25.752,38.836,33.784,50.989,33.784,8.718,0,15.851-4.252,21.135-9.214a1.5,1.5,0,1,1,1.849,2.363c-8.983,10.159-19.022,18.427-36.194,18.427-21.664,0-36.458-14.883-51.517-31.185-15.587,18.428-30.382,30.713-57.857,30.713-26.949,0-50.99-16.774-50.99-41.58,0-22.208,22.456-41.108,48.875-50.086-8.454-8.741-14.53-17.246-14.53-29.531,0-18.191,14.795-37.564,40.421-37.564,21.136,0,35.4,13.939,35.4,27.169s-12.681,25.987-38.044,36.383l46.762,46.305c16.115-17.719,28-36.619,28-45.833,0-5.2-6.076-9.45-25.362-10.868-1.321-.236-1.321-3.307,0-3.307,12.417,0,23.249.945,40.157.945s24.569-.945,37.515-.945c1.057,0,1.057,3.071,0,3.307C1122.2,185.669,1115.591,189.213,1102.909,203.624Zm-105.147-2.6c-19.551,10.159-29.59,23.153-29.59,41.817,0,17.482,16.908,33.547,40.421,33.547,15.059,0,29.061-9.214,42.006-22.68Zm22.191-66.859c-14.266,0-22.72,11.1-22.72,24.806,0,10.159,5.02,18.664,16.115,30,18.494-9.45,25.891-22.444,25.891-34.729C1039.239,143.38,1034.22,134.166,1019.953,134.166Z" style="fill: #82c5bf"/>
            <path d="M1366.762,132c-8.635-25.74-16.63-40.9-48.292-40.9-15.669,0-26.223.285-35.178.858-.959,10.581-1.6,38.895-1.6,90.088,0,85.8,1.6,93.235,4.157,94.665,4.158,2.288,14.711,2,22.706,3.718,2.559.572,1.919,3.718.321,3.718-8.955-.858-23.347-1.144-40.616-1.144-16.95,0-32.3.286-41.255,1.144-1.6,0-2.24-3.146.319-3.718,7.995-1.717,19.509-1.43,23.347-3.718,2.878-1.43,4.476-8.866,4.476-94.665,0-51.193-.639-79.221-1.6-90.088-8.955-.287-17.27-.858-29.423-.858-34.219,0-47.652,16.015-58.2,39.181-.959,2-6.4,1.716-6.4.286,2.238-13.442,12.472-42.327,12.792-52.051,0-2,4.157-2.288,5.117-1.43,8,6.292,18.229,7.722,92.105,7.722,77.714,0,90.186-1.716,96.263-7.722.959-1.144,5.436-.572,4.8,1.43-1.6,9.724,2.879,40.325,2.559,53.767C1372.839,133.715,1367.4,134,1366.762,132Z" style="fill: #82c5bf"/>
            <path d="M1401.6,283.005c-9.082,0-13.334.172-18.938.518-.966.173-1.159-1.556.193-1.9,4.446-.864,6.957-.691,9.277-1.9,2.126-1.037,3.478-11.234,2.511-47.18-.385-11.579-8.7-15.727-19.711-15.727a27.878,27.878,0,0,0-20.292,8.641,5.212,5.212,0,0,0-1.932,4.493v16.764c0,29.9.773,32.145,2.512,33.009,2.319,1.21,4.832,1.037,9.276,1.9,1.353.345,1.16,2.074.193,1.9-5.6-.346-9.855-.518-18.745-.518-9.663,0-15.266.172-20.292.518-.772.173-1.159-1.556.193-1.9,4.446-.864,8.311-.691,10.629-1.9,1.546-.692,2.513-3.284,2.513-60.66,0-48.045-.58-57.031-2.319-58.068s-5.025-1.728-9.469-2.247c-1.547-.173-1.16-1.383-.387-1.555,9.277-1.383,19.906-4.494,26.283-8.468a1.3,1.3,0,0,1,1.932,1.382c-1.159,3.629-1.352,10.369-1.352,12.271L1352.514,222c0,.691,1.354.864,1.546.691,9.277-8.987,18.553-14.344,29.569-14.344,16.425,0,24.736,9.85,24.736,24.195,0,40.613.966,46.488,2.512,47.18,2.319,1.21,6.184,1.037,10.629,1.9,1.352.345,1.16,2.074.193,1.9C1416.675,283.177,1411.07,283.005,1401.6,283.005Z" style="fill: #82c5bf"/>
            <path d="M1482.766,224.418c-5.991,0-7.923-6.74-13.141-6.74-5.8,0-7.731,2.247-14.108,8.987a5.21,5.21,0,0,0-1.932,4.493l.386,15.554c.581,30.071.774,32.145,2.32,33.009,2.318,1.21,10.242,1.037,14.686,1.9,1.354.345.967,2.074.194,1.9-5.605-.346-15.267-.518-24.157-.518-9.663,0-15.074.172-20.1.518-.966.173-1.353-1.556.193-1.9,4.445-.864,8.31-.691,10.629-1.9,1.546-.692,2.319-2.938,2.319-33.009,0-20.738-.58-24.195-2.319-25.75s-4.059-2.593-8.7-3.284c-1.353-.345-.966-1.382-.194-1.555,9.277-1.556,17.586-6.913,23.771-10.715a1.4,1.4,0,0,1,2.126,1.21c-.774,2.246-1.74,10.715-1.74,16.936,0,.518,1.547.864,1.547.691,5.217-8.468,15.266-16.763,23-16.763,8.116,0,13.334,2.938,13.334,8.814C1490.883,220.962,1487.791,224.418,1482.766,224.418Z" style="fill: #82c5bf"/>
            <path d="M1518.133,283.005c-9.663,0-15.075.172-20.1.518-.966.173-1.353-1.556.193-1.9,4.445-.864,8.31-.691,10.629-1.9,1.546-.692,2.32-2.938,2.32-33.009,0-20.738-.387-24.022-2.32-25.75-1.739-1.556-4.058-2.593-8.5-3.284-1.546-.345-1.16-1.382-.386-1.555,9.276-1.556,17.586-6.913,23.77-10.715a1.4,1.4,0,0,1,2.125,1.21c-.772,2.246-.386,8.468-.386,14.689l-.386,25.405c-.387,30.071.772,32.145,2.511,33.009,2.126,1.21,6.185,1.037,10.436,1.9,1.547.345,1.16,2.074.193,1.9C1532.626,283.177,1527.022,283.005,1518.133,283.005Zm-1.354-104.211c-5.024,0-9.082-2.938-9.082-7.432,0-5.185,5.024-8.986,10.436-8.986,5.024,0,8.5,3.283,8.5,7.949C1526.636,174.818,1522.577,178.794,1516.779,178.794Z" style="fill: #82c5bf"/>
            <path d="M1623.261,213.876c-5.992,2.42-19.712,33.7-36.718,70.684-.387,1.21-4.446.864-4.639.173-15.073-33.182-28.987-69.3-33.046-70.857-2.9-1.21-5.8-1.037-10.629-2.074-1.739-.345-.966-1.9,0-1.9a160.566,160.566,0,0,0,18.552.691c9.47,0,20.872-.172,25.7-.691a.953.953,0,0,1,0,1.9c-3.865,1.037-13.335.519-14.107,2.247-1.546,2.765,7.73,25.059,20.677,55.648,12.949-29.38,21.838-49.945,21.838-53.574,0-2.074-2.9-3.111-11.6-4.321a.954.954,0,0,1,0-1.9,160.566,160.566,0,0,0,18.552.691c9.663,0,9.47-.172,14.5-.691.965,0,1.545,1.556,0,1.9C1627.512,212.839,1626.159,212.666,1623.261,213.876Z" style="fill: #82c5bf"/>
            <path d="M1676.019,236.689c-13.334,0-20.677,0-25.509.172a35.209,35.209,0,0,0-.58,8.123c0,18.319,10.823,32.663,32.081,32.663,8.889,0,17.2-3.111,21.643-8.122.387-.692,2.319-.173,1.739,1.036-3.864,8.641-17.392,14.69-28.794,14.69-28.214,0-41.936-19.01-41.936-38.885,0-20.219,16.233-37.847,41.163-37.847,26.282,0,34.4,21.775,31.693,26.96C1706.167,238.244,1693.219,236.689,1676.019,236.689Zm-1.159-25.232c-12.948,0-20.1,9.85-23.964,22.812,4.831,0,12.755-.173,25.123-.346,1.353,0,15.46.173,15.654-.172C1693.025,228.566,1691.093,211.457,1674.86,211.457Z" style="fill: #82c5bf"/>
          </g>
          <g>
            <path d="M927.884,327.527v5.387c0,6.487-3.244,10.194-9.5,10.194s-9.5-3.707-9.5-10.194V311.83c0-6.487,3.243-10.194,9.5-10.194s9.5,3.707,9.5,10.194v3.939H921.86v-4.345c0-2.9-1.274-4-3.3-4s-3.3,1.1-3.3,4v21.9c0,2.9,1.274,3.939,3.3,3.939s3.3-1.043,3.3-3.939v-5.792Z" style="fill: #e39578"/>
            <path d="M965.354,342.645c-.346-1.043-.579-1.68-.579-4.982v-6.371c0-3.765-1.274-5.155-4.17-5.155h-2.2v16.508h-6.371V302.1h9.614c6.6,0,9.442,3.07,9.442,9.325v3.186c0,4.17-1.332,6.835-4.17,8.167v.116c3.185,1.332,4.228,4.344,4.228,8.572v6.256a11.944,11.944,0,0,0,.695,4.924Zm-6.95-34.754v12.453h2.49c2.375,0,3.824-1.042,3.824-4.286v-4c0-2.9-.985-4.171-3.245-4.171Z" style="fill: #e39578"/>
            <path d="M1001.958,319.186h8.746v5.792h-8.746v11.875h11v5.792H995.586V302.1h17.377v5.792h-11Z" style="fill: #e39578"/>
            <path d="M1057.791,342.645h-6.43l-1.1-7.356h-7.82l-1.1,7.356h-5.851l6.487-40.546h9.327Zm-14.539-12.859h6.139l-3.011-20.5h-.116Z" style="fill: #e39578"/>
            <path d="M1076.959,302.1h19.694v5.792h-6.661v34.754h-6.372V307.891h-6.661Z" style="fill: #e39578"/>
            <path d="M1119.7,302.1h6.372v40.546H1119.7Z" style="fill: #e39578"/>
            <path d="M1160.534,335.172h.116l4.808-33.073h5.849l-6.255,40.546h-9.5L1149.3,302.1h6.429Z" style="fill: #e39578"/>
            <path d="M1200.9,319.186h8.746v5.792H1200.9v11.875h11v5.792h-17.377V302.1h17.377v5.792h-11Z" style="fill: #e39578"/>
            <path d="M1271.734,342.645h-6.371V302.1h6.371v17.377h7.24V302.1h6.488v40.546h-6.488V325.268h-7.24Z" style="fill: #e39578"/>
            <path d="M1309.843,311.83c0-6.487,3.417-10.194,9.672-10.194s9.673,3.707,9.673,10.194v21.084c0,6.487-3.417,10.194-9.673,10.194s-9.672-3.707-9.672-10.194Zm6.371,21.489c0,2.9,1.274,4,3.3,4s3.3-1.1,3.3-4v-21.9c0-2.9-1.274-4-3.3-4s-3.3,1.1-3.3,4Z" style="fill: #e39578"/>
            <path d="M1367.007,330.886h.116l4.286-28.787h8.862v40.546h-6.024V313.567h-.116l-4.286,29.078h-6.024l-4.634-28.672h-.116v28.672h-5.56V302.1h8.862Z" style="fill: #e39578"/>
            <path d="M1411.544,319.186h8.746v5.792h-8.746v11.875h11v5.792h-17.377V302.1h17.377v5.792h-11Z" style="fill: #e39578"/>
            <path d="M1476.006,302.1h10.078c6.371,0,9.5,3.533,9.5,10.021v20.5c0,6.487-3.128,10.021-9.5,10.021h-10.078Zm6.371,5.792v28.962h3.591c2.027,0,3.244-1.043,3.244-3.939V311.83c0-2.9-1.217-3.939-3.244-3.939Z" style="fill: #e39578"/>
            <path d="M1526.277,319.186h8.746v5.792h-8.746v11.875h11v5.792h-17.376V302.1h17.376v5.792h-11Z" style="fill: #e39578"/>
            <path d="M1570.062,301.636c6.2,0,9.383,3.707,9.383,10.194V313.1h-6.023v-1.68c0-2.9-1.159-4-3.186-4s-3.185,1.1-3.185,4c0,2.955,1.273,5.156,5.444,8.805,5.329,4.692,7.009,8.051,7.009,12.685,0,6.487-3.244,10.194-9.5,10.194s-9.5-3.707-9.5-10.194v-2.491h6.024v2.9c0,2.9,1.275,3.939,3.3,3.939s3.3-1.043,3.3-3.939c0-2.954-1.275-5.155-5.445-8.8-5.329-4.692-7.008-8.051-7.008-12.685C1560.679,305.343,1563.864,301.636,1570.062,301.636Z" style="fill: #e39578"/>
            <path d="M1603.422,302.1h6.371v40.546h-6.371Z" style="fill: #e39578"/>
            <path d="M1644.254,320.055h8.92v12.859c0,6.487-3.244,10.194-9.5,10.194s-9.5-3.707-9.5-10.194V311.83c0-6.487,3.243-10.194,9.5-10.194s9.5,3.707,9.5,10.194v3.939h-6.024v-4.345c0-2.9-1.274-4-3.3-4s-3.3,1.1-3.3,4v21.9c0,2.9,1.274,3.939,3.3,3.939s3.3-1.043,3.3-3.939v-7.472h-2.9Z" style="fill: #e39578"/>
            <path d="M1683.347,313.278h-.116v29.367H1677.5V302.1h7.993l6.43,24.269h.116V302.1h5.676v40.546h-6.545Z" style="fill: #e39578"/>
          </g>
        </g>
        <g>
          <path d="M276.732,207.246c23.567-19.558,50.041-54.154,44.03-88.686,1.67,42.551-53.756,89.151-77.383,99.652h0q-6.119,2.256-11.993,4.743c6.485-8.7,11.434-21.157,9.141-32.329-.232,15.892-18.507,32.689-30.872,41.185q-1.666,1.024-3.288,2.094c-8.754,5.787-10.642,7.572-18.087,15.431,4.319-15.472,7.291-23.77,14.733-38.547,17.134-29.188,64.627-55.183,83.639-49.111-17.578-5.614-46.143,2.533-66.546,19.942,26.972-39.938,64.681-71.921,107.074-83.812-.6-1.265-1.219-2.515-1.844-3.764a143.034,143.034,0,0,0-56.843,19.81c3.457-14.595,19.843-33.992,31.334-57.347-1.114-1.248-2.262-2.465-3.413-3.68-9.509,16.22-22.116,31.754-33.082,45.36-13.152,16.317-10.3,23.556-25.458,40.139-28.493,28.79-45.215,64.41-58.049,85.627a116.35,116.35,0,0,1-2.567-31.338c2.079-20.088,21.375-18.719,39.088-49.82-14.065,17.4-26.457,20.677-34.975,26.242A130.29,130.29,0,0,1,197.2,135.432c8.485-10.627,29.087-16.613,40.393-24.49,14.782-10.3,24.453-25.3,26.625-42.021-6.687,18.23-19.269,33.128-52.1,46.044,27.149-33.766,57.216-54.829,50.3-89.931-1.818-1.132-3.665-2.219-5.527-3.284,3.467,44.344-39.178,61.99-69.079,104.894A128.589,128.589,0,0,0,186.7,104.2h0c-1.155-8.634,13.067-18.05,20.97-34.648,6.225-13.089,9.456-28.6,6.255-50.626.286,33.409-16.177,59.239-29.375,68.946-1.828-15.7-1.936-31.642,8.353-51.928-30.212,37.613-4.064,64.567-15.979,108.65l.008.007c-1.808,3.516-3.5,7.153-5.036,10.932-10.034-16.392-19.637-30.337-19.146-58.868-4.765,21.439-.987,33.222,3.3,45.291,4.2,11.809,10.379,26.272,8.552,38.021q-.147.766-.289,1.543l-.042.168h.008c-3.107,17.1-3.268,36.742.9,59.794-15.618-34.486-21.551-75.6-28.261-114.616v0c-1.317-8.95-.529-17.224.691-25.518,2.312-15.093,12.132-21.086,17.13-30.666A102.284,102.284,0,0,0,165.8,31.758c-5.892,28.228-12.166,35.729-25.06,46.634q.169-2.274.229-4.6C141.61,47.406,138.607,18.939,154.5,0c-1.335.133-2.651.326-3.977.489-8.9,9.165-12.712,20.832-14.535,33.416-4.927-8.774-8.755-17.68-10.681-28.363-1.079.3-2.162.595-3.232.918A60.6,60.6,0,0,0,126,24.077c4.095,10.327,8.759,16.976,8.38,27.743-.739,13.528-1,27.2-4.323,39.188C123.462,61.46,114.19,35.077,96.985,16.225c-1.622.786-3.213,1.627-4.807,2.462A108.275,108.275,0,0,1,107.5,46.521,48.757,48.757,0,0,0,72.538,30.728c-1.534,1.088-3.063,2.181-4.56,3.318,20.2,1.868,34.35,11.744,44.648,28.544,16.576,45.058,13,81.4,18.718,119.285-10.08-40.532-30.22-76.753-49.234-98.657a73.346,73.346,0,0,0-40.626-24.2c-.293.341-.593.677-.884,1.021C65.3,67.759,80.146,81.88,89.528,105.6c-9.216-6.095-21.359-11.412-38.07-15.4,50.5,18.5,57.9,45.914,62.909,72.036C104.8,151.827,86.853,145.039,73.445,146c45.331,9.745,57.742,65.044,76.952,100.157-58.17-65.764-114.013-84.846-119.8-162.147a119.686,119.686,0,0,0,2.244,35.29,79.609,79.609,0,0,0-17.546-19.249q-1.489,3.28-2.845,6.631C24.147,116.119,33.663,128.6,42.021,145l.285.56c.116.232.236.461.352.694v0c9.791,18.943,24.3,34.633,39.662,49.591A89.891,89.891,0,0,0,68.9,191.193l.008,0-.173-.041c-.338-.09-.679-.177-1.021-.267-8.582-2.454-13.367-9.228-17.285-12.226C35.722,167.379,16.654,169.331.121,165.677c-.047,1.6-.117,3.189-.121,4.8,15.118,3.929,32.281,2.691,44.842,16.4A180.31,180.31,0,0,0,.8,187.4c.089.927.2,1.848.3,2.771,34.365-.488,86.473,11.756,103.057,26.539,6.643,6.425,13.105,12.939,19.075,19.743-6.214-.323-12.68,2.165-19.585,5.783v-.008c-16.936,5.978-35.222-28.077-78.55-21.72,36.434,0,49,25.912,61.93,31.226-16.933,9.66-36.747,18.615-61.472,9.3q1.536,2.487,3.152,4.917c39.948,20.285,70.751-13.577,95.963-16.556,4.135-.488,10.679,1.891,15.321,9.6q1.577,2.624,3.021,5.329c12.144,22.677,17.417,43.53,7.7,69.547-1.045,2.793-2.725,4.462-3.8,6.963a169.559,169.559,0,0,0,47.369.291c-5.542-24.883-15.182-38.238-3.492-63.521,10.549-15.787,37.4-29.957,61.394-31.379,19.048-.342,46.824,11.1,59.459,24.241.647-.907,1.307-1.8,1.936-2.722-5.622-8.2-15.856-15.362-27.869-20.131a304.463,304.463,0,0,1,36.026,6.94c.778-1.392,1.531-2.8,2.27-4.213-37.4-14.171-75.058-17.6-101.888-8.667,11.554-8.575,25.832-15.1,40.989-21.214a56.527,56.527,0,0,1,23.222-3.37,288.692,288.692,0,0,0,50.427,1.426c.5-1.72,1-3.436,1.444-5.178a284.985,284.985,0,0,1-49.954-2.706c19.8-7.8,39.286-16.457,54.892-29.111.039-.637.107-1.265.139-1.9C324.841,192.137,300.922,199.728,276.732,207.246Z" style="fill: #82c5bf"/>
          <g>
            <path d="M20.2,127.769a4.4,4.4,0,1,1-4.4-4.4A4.4,4.4,0,0,1,20.2,127.769Z" style="fill: #5c9350"/>
            <path d="M50.437,73.651a4.4,4.4,0,1,1-4.4-4.4A4.4,4.4,0,0,1,50.437,73.651Z" style="fill: #c8db41"/>
            <path d="M62.712,136.561a4.4,4.4,0,1,1-4.4-4.4A4.4,4.4,0,0,1,62.712,136.561Z" style="fill: #5c9350"/>
            <circle cx="93.926" cy="135.709" r="4.396" style="fill: #c8db41"/>
            <circle cx="276.98" cy="51.95" r="4.396" style="fill: #f1a81e"/>
            <circle cx="124.426" cy="41.329" r="4.396" style="fill: #c8db41"/>
            <path d="M222.648,75.412a4.4,4.4,0,1,1-4.4-4.4A4.4,4.4,0,0,1,222.648,75.412Z" style="fill: #f1a81e"/>
            <path d="M80.353,47.554a4.4,4.4,0,1,1-4.4-4.4A4.4,4.4,0,0,1,80.353,47.554Z" style="fill: #b5745b"/>
            <path d="M108.7,76.554A6.595,6.595,0,1,1,102.1,69.96,6.6,6.6,0,0,1,108.7,76.554Z" style="fill: #f1a81e"/>
            <path d="M75.9,117.048a6.595,6.595,0,1,1-6.595-6.594A6.6,6.6,0,0,1,75.9,117.048Z" style="fill: #f1a81e"/>
            <path d="M41.947,155.67a6.595,6.595,0,1,1-6.6-6.594A6.595,6.595,0,0,1,41.947,155.67Z" style="fill: #f1a81e"/>
            <path d="M102.1,224.446a6.594,6.594,0,1,1-6.594-6.595A6.594,6.594,0,0,1,102.1,224.446Z" style="fill: #5c9350"/>
            <path d="M60.514,248.106a6.595,6.595,0,1,1-6.594-6.594A6.594,6.594,0,0,1,60.514,248.106Z" style="fill: #b5745b"/>
            <path d="M168.212,10.908a4.4,4.4,0,1,1-4.4-4.4A4.4,4.4,0,0,1,168.212,10.908Z" style="fill: #5c9350"/>
            <path d="M202.266,16.024a4.4,4.4,0,1,1-4.4-4.4A4.4,4.4,0,0,1,202.266,16.024Z" style="fill: #b5745b"/>
            <path d="M183.685,34.431a4.4,4.4,0,1,1-4.4-4.4A4.4,4.4,0,0,1,183.685,34.431Z" style="fill: #f1a81e"/>
            <path d="M168.852,85.347a4.4,4.4,0,1,1-4.4-4.4A4.4,4.4,0,0,1,168.852,85.347Z" style="fill: #f1a81e"/>
            <path d="M119.137,105.971a4.4,4.4,0,1,1-4.4-4.4A4.4,4.4,0,0,1,119.137,105.971Z" style="fill: #f1a81e"/>
            <path d="M235.837,24.817a4.4,4.4,0,1,1-4.4-4.4A4.4,4.4,0,0,1,235.837,24.817Z" style="fill: #f1a81e"/>
            <path d="M310.116,80.951a4.4,4.4,0,1,1-4.4-4.4A4.4,4.4,0,0,1,310.116,80.951Z" style="fill: #c8db41"/>
            <path d="M326.346,178.333a4.4,4.4,0,1,1-4.4-4.4A4.4,4.4,0,0,1,326.346,178.333Z" style="fill: #5c9350"/>
            <path d="M338.354,153.472a4.4,4.4,0,1,1-4.4-4.4A4.4,4.4,0,0,1,338.354,153.472Z" style="fill: #f1a81e"/>
            <path d="M302.363,151.446a4.4,4.4,0,1,1-4.4-4.4A4.4,4.4,0,0,1,302.363,151.446Z" style="fill: #f1a81e"/>
            <circle cx="272.079" cy="147.05" r="4.396" style="fill: #b5745b"/>
            <path d="M224.6,209.633a4.4,4.4,0,1,1-4.4-4.4A4.4,4.4,0,0,1,224.6,209.633Z" style="fill: #f1a81e"/>
            <path d="M231.44,132.165a4.4,4.4,0,1,1-4.4-4.4A4.4,4.4,0,0,1,231.44,132.165Z" style="fill: #f1a81e"/>
            <path d="M309.911,124.631a6.682,6.682,0,1,1-6.681-6.681A6.682,6.682,0,0,1,309.911,124.631Z" style="fill: #5c9350"/>
            <path d="M241.681,53.7A6.682,6.682,0,1,1,235,47.014,6.682,6.682,0,0,1,241.681,53.7Z" style="fill: #5c9350"/>
            <path d="M174.893,110.367a6.682,6.682,0,1,1-6.681-6.681A6.681,6.681,0,0,1,174.893,110.367Z" style="fill: #c8db41"/>
            <path d="M267.683,189.654A6.682,6.682,0,1,1,261,182.972,6.682,6.682,0,0,1,267.683,189.654Z" style="fill: #c8db41"/>
            <path d="M326.346,236.317a4.4,4.4,0,1,1-4.4-4.4A4.4,4.4,0,0,1,326.346,236.317Z" style="fill: #c8db41"/>
            <path d="M336.2,203.894a4.4,4.4,0,1,1-4.4-4.4A4.4,4.4,0,0,1,336.2,203.894Z" style="fill: #f1a81e"/>
            <path d="M296.548,230a4.4,4.4,0,1,1-4.4-4.4A4.4,4.4,0,0,1,296.548,230Z" style="fill: #f1a81e"/>
            <path d="M106.5,180.979a4.4,4.4,0,1,1-4.4-4.4A4.4,4.4,0,0,1,106.5,180.979Z" style="fill: #f1a81e"/>
            <path d="M59.23,210.693a4.4,4.4,0,1,1-4.4-4.4A4.4,4.4,0,0,1,59.23,210.693Z" style="fill: #c8db41"/>
            <path d="M31.4,235.436a4.4,4.4,0,1,1-4.4-4.4A4.4,4.4,0,0,1,31.4,235.436Z" style="fill: #c8db41"/>
            <path d="M302.363,274.065a4.4,4.4,0,1,1-4.4-4.4A4.4,4.4,0,0,1,302.363,274.065Z" style="fill: #f1a81e"/>
            <path d="M265.4,258.887a4.4,4.4,0,1,1-4.4-4.4A4.4,4.4,0,0,1,265.4,258.887Z" style="fill: #c8db41"/>
            <circle cx="15.798" cy="201.901" r="4.396" style="fill: #f1a81e"/>
            <path d="M62.712,287.4a4.4,4.4,0,1,1-4.4-4.4A4.4,4.4,0,0,1,62.712,287.4Z" style="fill: #c8db41"/>
            <circle cx="12.83" cy="157.868" r="4.396" style="fill: #c8db41"/>
          </g>
        </g>
      </g>
    </g>
  </g>
</svg>
